Coordinates
version=1
nRows=8
nColumns=46
inDegrees=yes

Units are S.I. units (second, meters, Newtons, ...)
Angles are in degrees.

endheader
time	pelvis_tilt	pelvis_list	pelvis_rotation	pelvis_tx	pelvis_ty	pelvis_tz	bb_angle	bb_tx	bb_ty	bb_tz	hip_flexion_r	hip_adduction_r	hip_rotation_r	knee_angle_r	knee_angle_r_beta	ankle_angle_r	subtalar_angle_r	mtp_angle_r	crank_angle_r	hip_flexion_l	hip_adduction_l	hip_rotation_l	knee_angle_l	knee_angle_l_beta	ankle_angle_l	subtalar_angle_l	mtp_angle_l	crank_angle_l	lumbar_extension	lumbar_bending	lumbar_rotation	arm_flex_r	arm_add_r	arm_rot_r	elbow_flex_r	pro_sup_r	wrist_flex_r	wrist_dev_r	arm_flex_l	arm_add_l	arm_rot_l	elbow_flex_l	pro_sup_l	wrist_flex_l	wrist_dev_l
      0.00500000	    -18.93576189	      1.65962938	      2.82078323	      0.11715253	      1.14468802	     -0.24640815	      0.00000000	      0.50000000	      0.00000000	      0.25000000	     57.40367005	     -7.63265478	     -3.07420456	     73.31887962	      1.27965585	      9.39575169	     -8.12441763	      0.00000000	      0.00000000	     84.97743550	     -1.82641635	      0.95419159	     82.41444280	      1.43840338	     10.14086416	     -1.66795299	      0.00000000	      0.00000000	    -52.66952783	      0.47432975	     -0.87254454	     89.83354622	     -0.11246574	     16.79569245	     37.25668034	     20.20730403	      0.00000000	      0.00000000	     89.82459349	      3.49138366	     21.06559497	     38.70777475	     19.83183054	      0.00000000	      0.00000000
      0.01000000	    -18.86806616	      1.57160203	      2.79358780	      0.11720606	      1.14485188	     -0.24631835	      0.00000000	      0.50000000	      0.00000000	      0.25000000	     57.72883719	     -7.58860994	     -3.07591381	     74.17052557	      1.29451988	      9.36163490	     -8.17639585	      0.00000000	      0.00000000	     84.49522406	     -1.82220403	      1.05361344	     81.63425842	      1.42478659	      9.86107250	     -1.74648206	      0.00000000	      0.00000000	    -52.75326790	      0.52870517	     -0.76603457	     89.83385328	      0.00420415	     16.27170479	     37.14019010	     21.41604696	      0.00000000	      0.00000000	     89.82478681	      3.65628448	     20.57293906	     38.48370091	     21.03513612	      0.00000000	      0.00000000
      0.01500000	    -18.98881814	      1.46544411	      2.76029829	      0.11712215	      1.14457592	     -0.24628932	      0.00000000	      0.50000000	      0.00000000	      0.25000000	     58.27455019	     -7.50508410	     -3.03126378	     75.01431929	      1.30924686	      9.29586266	     -8.23762408	      0.00000000	      0.00000000	     84.22106455	     -1.74009040	      1.20118564	     80.83678758	      1.41086810	      9.56430953	     -2.07233323	      0.00000000	      0.00000000	    -52.61412464	      0.60778987	     -0.64111794	     89.83399978	      0.24739791	     15.47026987	     36.53231135	     24.36813434	      0.00000000	      0.00000000	     89.82468828	      3.82006135	     19.94665504	     37.82336974	     24.07285304	      0.00000000	      0.00000000
      0.02000000	    -18.90276057	      1.32666529	      2.68720257	      0.11724020	      1.14471229	     -0.24608520	      0.00000000	      0.50000000	      0.00000000	      0.25000000	     58.56706504	     -7.37047320	     -3.02498307	     75.82417162	      1.32338145	      9.30776993	     -8.27357442	      0.00000000	      0.00000000	     83.68874264	     -1.81860419	      1.33959651	     80.08537287	      1.39775344	      9.44400427	     -2.10741069	      0.00000000	      0.00000000	    -52.66439836	      0.67501697	     -0.56542926	     89.83577241	     -0.07244646	     16.93030683	     36.22505805	     25.34237179	      0.00000000	      0.00000000	     89.82544756	      3.25097790	     21.44012514	     37.64729446	     24.99529223	      0.00000000	      0.00000000
      0.02500000	    -18.86649855	      1.14470860	      2.65534192	      0.11730413	      1.14458393	     -0.24598711	      0.00000000	      0.50000000	      0.00000000	      0.25000000	     58.90909733	     -7.26738595	     -3.10136086	     76.61347941	      1.33715747	      9.25334676	     -8.39151681	      0.00000000	      0.00000000	     83.20030171	     -1.78927392	      1.56062134	     79.31522486	      1.38431182	      9.45188136	     -2.36581999	      0.00000000	      0.00000000	    -52.73974181	      0.82096073	     -0.35117519	     89.83439260	      0.03245383	     16.43763705	     36.50742421	     26.02087547	      0.00000000	      0.00000000	     89.82431928	      3.38579891	     20.78328511	     37.78445215	     25.65475629	      0.00000000	      0.00000000
      0.03000000	    -18.94688906	      1.05558386	      2.60381412	      0.11735050	      1.14453586	     -0.24602465	      0.00000000	      0.50000000	      0.00000000	      0.25000000	     59.39976109	     -7.14524087	     -2.97005959	     77.39541807	      1.35080487	      9.11733995	     -8.40585877	      0.00000000	      0.00000000	     82.79274871	     -1.76420076	      1.64982732	     78.48701919	      1.36985690	      9.26884813	     -2.61610135	      0.00000000	      0.00000000	    -52.61511626	      0.86799330	     -0.26555186	     89.83567004	      0.10142987	     16.80196255	     37.65905686	     18.44616239	      0.00000000	      0.00000000	     89.82434247	      3.56150015	     21.29675776	     38.87396538	     17.47146320	      0.00000000	      0.00000000
      0.03500000	    -18.89205638	      0.86716790	      2.54661169	      0.11746981	      1.14467675	     -0.24592073	      0.00000000	      0.50000000	      0.00000000	      0.25000000	     59.69510502	     -6.96626584	     -2.98099458	     78.13302001	      1.36367845	      9.04410568	     -8.51282958	      0.00000000	      0.00000000	     82.23262615	     -1.77997740	      1.80718752	     77.67309262	      1.35565121	      9.28136345	     -2.93183397	      0.00000000	      0.00000000	    -52.67449295	      1.01534074	     -0.04706735	     89.83556962	      0.29274162	     16.21907904	     37.52791832	     19.84315146	      0.00000000	      0.00000000	     89.82501421	      3.59337354	     20.63042895	     38.79493097	     18.96785652	      0.00000000	      0.00000000
      0.04000000	    -18.94296996	      0.74316368	      2.48863692	      0.11757229	      1.14461181	     -0.24595976	      0.00000000	      0.50000000	      0.00000000	      0.25000000	     60.12103158	     -6.86321855	     -2.92401956	     78.84587501	      1.37612012	      8.93362646	     -8.48625176	      0.00000000	      0.00000000	     81.77651027	     -1.74002959	      1.94540445	     76.87510894	      1.34172376	      9.20070607	     -3.30403030	      0.00000000	      0.00000000	    -52.60195990	      1.11784150	      0.06908795	     89.83661271	      0.49817986	     15.88096867	     37.21941805	     20.90626336	      0.00000000	      0.00000000	     89.82564316	      3.78221099	     20.54128392	     38.23393492	     20.06468226	      0.00000000	      0.00000000
